<svg height="464pt" viewBox="-7 0 464 464.20294" width="464pt" xmlns="http://www.w3.org/2000/svg"><g fill="#d4e1f4"><path d="m300.402344 348.398438v-60l76.898437-42.097657-24-12.800781-83.800781 45.898438v60c.027344 47.632812 28.25 90.734374 71.902344 109.800781l11.597656 5.101562 6.402344-2.800781c-36.511719-21.519531-58.941406-60.71875-59-103.101562zm0 0"/><path d="m123.703125 125.699219c0-52.851563 42.84375-95.699219 95.699219-95.699219 3.097656 0 6.097656.199219 9.097656.398438-32.085938-25.167969-76.59375-27.246094-110.886719-5.171876-34.289062 22.074219-50.832031 63.449219-41.207031 103.078126 9.625 39.628906 43.300781 68.808593 83.894531 72.695312-23.109375-18.152344-36.605469-45.914062-36.597656-75.300781zm0 0"/><path d="m219.300781 265.199219c11.292969-.007813 22.554688 1.164062 33.601563 3.5-25.121094-15.5-54.085938-23.640625-83.601563-23.5-88.097656.199219-159.398437 70.5-159.199219 166.199219l51-.097657c9.101563-85.300781 76.398438-145.902343 158.199219-146.101562zm0 0"/></g><path d="m169.402344 211.398438c58.375 0 105.699218-47.320313 105.699218-105.699219 0-58.375-47.324218-105.699219-105.699218-105.699219s-105.699219 47.324219-105.699219 105.699219c.054687 58.355469 47.34375 105.644531 105.699219 105.699219zm0-191.398438c47.332031 0 85.699218 38.371094 85.699218 85.699219 0 47.332031-38.367187 85.699219-85.699218 85.699219-47.332032 0-85.699219-38.367188-85.699219-85.699219.054687-47.308594 38.390625-85.644531 85.699219-85.699219zm0 0" fill="#0635c9"/><path d="m20.402344 401.300781c2.097656-39.300781 17.398437-75.199219 43.398437-101.902343 27.699219-28.5 65.199219-44.199219 105.5-44.199219h.300781c33.378907-.191407 65.828126 10.988281 92 31.699219 1.5 1.203124 3 2.5 4.5 3.703124l13-15.101562c-1.699218-1.5-3.398437-2.898438-5.101562-4.300781-29.796875-23.699219-66-36.097657-104.699219-36.097657-45.800781.097657-88.300781 17.898438-119.800781 50.296876-32 32.800781-49.5 77.5-49.398438 126 .015626 5.519531 4.484376 9.984374 10 10l281-.5v-20zm0 0" fill="#0635c9"/><path d="m387.5 315.199219-45.199219 36.800781-16.300781-19.101562c-3.589844-4.195313-9.902344-4.6875-14.097656-1.097657-4.199219 3.589844-4.691406 9.902344-1.101563 14.097657l22.699219 26.5c1.910156 2.214843 4.679688 3.492187 7.601562 3.5 2.292969.019531 4.519532-.757813 6.300782-2.199219l52.800781-42.898438c4.289063-3.511719 4.925781-9.832031 1.425781-14.132812-3.5-4.296875-9.816406-4.957031-14.128906-1.46875zm0 0" fill="#0635c9"/><path d="m444.101562 270.5-86.199218-45.898438c-2.96875-1.621093-6.566406-1.582031-9.5.097657l-83.800782 45.902343c-3.207031 1.765626-5.199218 5.136719-5.199218 8.796876v60c.058594 51.585937 30.628906 98.25 77.898437 118.902343l11.601563 5.097657c1.257812.5625 2.625.835937 4 .800781 1.371094-.023438 2.726562-.292969 4-.800781l13.097656-5.699219c48.132812-20.191407 79.4375-67.304688 79.402344-119.5v-58.800781c.003906-3.714844-2.03125-7.132813-5.300782-8.898438zm-14.699218 67.699219c.019531 44.191406-26.523438 84.066406-67.300782 101.101562h-.101562l-9.097656 3.898438-7.601563-3.300781c-39.992187-17.472657-65.855469-56.953126-65.898437-100.597657v-54.101562l73.898437-40.5 76.101563 40.601562zm0 0" fill="#1ae5be"/></svg>