<svg height="400pt" viewBox="0 -59 400 400" width="400pt" xmlns="http://www.w3.org/2000/svg"><path d="m50 191.546875v-181.09375c-22.089844 0-40 17.910156-40 40v181.09375c0 22.089844 17.910156 40 40 40h300c22.089844 0 40-17.910156 40-40h-300c-22.089844 0-40-17.910156-40-40zm0 0" fill="#d4e1f4"/><g fill="#1ae5be"><path d="m91.691406 237.5c-23.773437 0-43.046875-19.273438-43.046875-43.050781 0-23.773438 19.273438-43.050781 43.046875-43.050781 23.777344 0 43.050782 19.277343 43.050782 43.050781-.027344 23.765625-19.285157 43.023437-43.050782 43.050781zm0-66.101562c-12.730468 0-23.046875 10.320312-23.046875 23.050781s10.316407 23.050781 23.046875 23.050781c12.730469 0 23.050782-10.320312 23.050782-23.050781-.011719-12.722657-10.324219-23.035157-23.050782-23.050781zm0 0"/><path d="m134.378906 237.5c-23.773437 0-43.050781-19.273438-43.050781-43.050781 0-23.773438 19.277344-43.050781 43.050781-43.050781 23.777344 0 43.050782 19.277343 43.050782 43.050781-.027344 23.765625-19.285157 43.023437-43.050782 43.050781zm0-66.101562c-12.730468 0-23.050781 10.320312-23.050781 23.050781s10.320313 23.050781 23.050781 23.050781c12.730469 0 23.050782-10.320312 23.050782-23.050781-.015626-12.722657-10.324219-23.035157-23.050782-23.050781zm0 0"/><path d="m390 73.191406h-380c-5.523438 0-10-4.480468-10-10 0-5.523437 4.476562-10 10-10h380c5.523438 0 10 4.476563 10 10 0 5.519532-4.476562 10-10 10zm0 0"/></g><path d="m400 50c0-27.613281-22.386719-50-50-50h-300c-27.613281 0-50 22.386719-50 50v181c0 27.613281 22.386719 50 50 50h300c27.613281 0 50-22.386719 50-50zm-350-30h300c16.542969 0 30 13.910156 30 30.453125v57.546875h-360v-57.546875c0-16.542969 13.457031-30.453125 30-30.453125zm300 242h-300c-16.542969 0-30-13.910156-30-30.453125v-103.546875h360v103.546875c0 16.542969-13.457031 30.453125-30 30.453125zm0 0" fill="#0635c9"/></svg>