<svg height="420pt" viewBox="-7 0 420 420" width="420pt" xmlns="http://www.w3.org/2000/svg"><path d="m179.296875 177.367188v-139.851563l17.542969-27.515625h-10.878906l-36.664063 57.515625v139.851563h189.019531v-30zm0 0" fill="#d4e1f4"/><path d="m160.929688 420c-22.871094 0-41.414063-18.542969-41.414063-41.414062 0-22.871094 18.542969-41.414063 41.414063-41.414063 22.871093 0 41.414062 18.542969 41.414062 41.414063 0 22.871093-18.542969 41.414062-41.414062 41.414062zm0-62.828125c-11.828126 0-21.414063 9.585937-21.414063 21.414063 0 11.828124 9.585937 21.414062 21.414063 21.414062 11.824218 0 21.414062-9.585938 21.414062-21.414062 0-11.828126-9.589844-21.414063-21.414062-21.414063zm0 0" fill="#1ae5be"/><path d="m302.332031 420c-22.875 0-41.414062-18.539062-41.417969-41.414062 0-22.871094 18.542969-41.414063 41.414063-41.414063 22.875 0 41.414063 18.539063 41.414063 41.414063-.023438 22.859374-18.550782 41.386718-41.410157 41.414062zm0-62.828125c-11.828125 0-21.414062 9.585937-21.417969 21.414063 0 11.824218 9.589844 21.414062 21.414063 21.414062 11.828125 0 21.414063-9.585938 21.414063-21.414062-.011719-11.820313-9.589844-21.398438-21.410157-21.414063zm0 0" fill="#1ae5be"/><path d="m405.199219 132.152344c-1.882813-2.65625-4.960938-4.210938-8.21875-4.152344h-61.492188v20h47.054688l-33.332031 88.589844c-.03125.078125-.058594.050781-.085938.132812-3.417969 9.78125-12.664062 16.320313-23.023438 16.277344h-204l-27-146.710938c-3.390624-21.539062-21.996093-37.378906-43.800781-37.289062h-41.300781c-5.523438 0-10 4.476562-10 10s4.476562 10 10 10h41.304688c12.011718-.035156 22.242187 8.714844 24.066406 20.582031.015625.082031.027344.179688.042968.261719l31.921876 173.335938c4.074218 20.824218 22.332031 35.839843 43.550781 35.820312h203.132812c5.519531 0 10-4.476562 10-10s-4.480469-10-10-10h-203.132812c-11.617188.03125-21.628907-8.164062-23.898438-19.558594l-1.199219-6.441406h200.3125c18.84375.007812 35.636719-11.894531 41.875-29.679688l38.367188-102.050781c1.152344-3.039062.722656-6.453125-1.144531-9.117187zm0 0" fill="#0635c9"/><path d="m148.4375 147.695312h-57.800781c-5.523438 0-10-4.476562-10-10 0-5.523437 4.476562-10 10-10h57.800781c5.523438 0 10 4.476563 10 10 0 5.523438-4.476562 10-10 10zm0 0" fill="#0635c9"/><path d="m270.214844 217.367188c-5.523438 0-10-4.476563-10-10v-59.726563l-32.816406-13.757813v73.484376c0 5.523437-4.476563 10-10 10-5.523438 0-10-4.476563-10-10v-88.519532c0-3.347656 1.675781-6.476562 4.460937-8.328125 2.789063-1.855469 6.320313-2.191406 9.40625-.894531l52.816406 22.144531c3.714844 1.558594 6.132813 5.191407 6.132813 9.222657v66.375c0 5.523437-4.476563 10-10 10zm0 0" fill="#0635c9"/><g fill="#1ae5be"><path d="m243.804688 77.515625c-5.523438 0-10-4.476563-10-10v-57.515625c0-5.523438 4.476562-10 10-10 5.523437 0 10 4.476562 10 10v57.515625c0 5.523437-4.476563 10-10 10zm0 0"/><path d="m338.316406 217.367188h-189.019531c-5.523437 0-10-4.476563-10-10v-139.851563c0-1.902344.542969-3.769531 1.566406-5.375l36.664063-57.515625c1.839844-2.882812 5.019531-4.625 8.433594-4.625h115.691406c3.414062 0 6.59375 1.742188 8.433594 4.625l36.660156 57.515625c1.023437 1.605469 1.570312 3.472656 1.570312 5.375v139.851563c0 5.523437-4.480468 10-10 10zm-179.019531-20h169.019531v-126.933594l-32.148437-50.433594h-104.722657l-32.148437 50.433594zm0 0"/><path d="m338.316406 77.515625h-189.019531c-5.523437 0-10-4.476563-10-10s4.476563-10 10-10h189.019531c5.519532 0 10 4.476563 10 10s-4.480468 10-10 10zm0 0"/></g></svg>